<?xml version="1.0" encoding="UTF-8" standalone="no"?>
<!-- Generator: Adobe Illustrator 24.0.1, SVG Export Plug-In . SVG Version: 6.00 Build 0)  -->

<svg
   version="1.1"
   x="0px"
   y="0px"
   viewBox="0 0 116.94 104.68"
   style="enable-background:new 0 0 116.94 104.68;"
   xml:space="preserve"
   id="svg70"
   sodipodi:docname="reviung39-ProMicro-cover-marked-A.svg"
   inkscape:version="1.3 (0e150ed6c4, 2023-07-21)"
   xmlns:inkscape="http://www.inkscape.org/namespaces/inkscape"
   xmlns:sodipodi="http://sodipodi.sourceforge.net/DTD/sodipodi-0.dtd"
   xmlns:xlink="http://www.w3.org/1999/xlink"
   xmlns="http://www.w3.org/2000/svg"
   xmlns:svg="http://www.w3.org/2000/svg"><defs
   id="defs70"><linearGradient
     id="linearGradient86"
     inkscape:collect="always"><stop
       style="stop-color:#000000;stop-opacity:1;"
       offset="0"
       id="stop87" /><stop
       style="stop-color:#000000;stop-opacity:0;"
       offset="1"
       id="stop88" /></linearGradient><linearGradient
     id="swatch82"
     inkscape:swatch="solid"><stop
       style="stop-color:#000000;stop-opacity:1;"
       offset="0"
       id="stop82" /></linearGradient><linearGradient
     inkscape:collect="always"
     xlink:href="#linearGradient86"
     id="linearGradient88"
     x1="6.3600001"
     y1="64.875"
     x2="92.400002"
     y2="64.875"
     gradientUnits="userSpaceOnUse" /></defs><sodipodi:namedview
   id="namedview70"
   pagecolor="#ffffff"
   bordercolor="#000000"
   borderopacity="0.25"
   inkscape:showpageshadow="2"
   inkscape:pageopacity="0.0"
   inkscape:pagecheckerboard="0"
   inkscape:deskcolor="#d1d1d1"
   inkscape:zoom="7.7665265"
   inkscape:cx="56.910898"
   inkscape:cy="52.597516"
   inkscape:window-width="1920"
   inkscape:window-height="1009"
   inkscape:window-x="-8"
   inkscape:window-y="-8"
   inkscape:window-maximized="1"
   inkscape:current-layer="g13" />&#10;<style
   type="text/css"
   id="style1">&#10;	.st0{fill:#E61F19;}&#10;	.st1{display:none;}&#10;	.st2{display:inline;}&#10;</style>&#10;<g
   id="PM-cover"
   style="display:inline">&#10;	<g
   id="g1"
   style="display:inline">&#10;		<path
   d="m 107.42,37.58 v 0.03 h 0.71 c 3.76,0.02 6.97,2.73 7.63,6.44 0.36,2.05 -0.1,4.12 -1.29,5.82 -1.18,1.69 -2.95,2.82 -4.97,3.19 h -9.93 -0.71 v 0.71 L 98.83,87.78 54.44,103.6 1.26,103.61 1.06,39.78 C 1.03,38.72 1.77,37.82 2.81,37.64 2.93,37.62 3.04,37.61 3.14,37.61 l 104.28,-0.03 m 0.65,11.35 c 0.21,0 0.41,-0.02 0.62,-0.05 1.92,-0.34 3.21,-2.18 2.87,-4.1 -0.3,-1.7 -1.77,-2.93 -3.49,-2.93 -0.21,0 -0.41,0.02 -0.62,0.05 -0.93,0.16 -1.74,0.68 -2.29,1.46 -0.54,0.78 -0.75,1.72 -0.59,2.65 0.32,1.69 1.78,2.92 3.5,2.92 M 9.39,102.15 c 0.21,0 0.41,-0.02 0.62,-0.05 1.92,-0.34 3.21,-2.18 2.87,-4.1 -0.3,-1.7 -1.77,-2.93 -3.49,-2.93 -0.21,0 -0.41,0.02 -0.62,0.05 -1.92,0.34 -3.21,2.18 -2.87,4.1 0.3,1.7 1.77,2.93 3.49,2.93 m 32.38,0.05 c 0.21,0 0.41,-0.02 0.62,-0.05 1.92,-0.34 3.21,-2.18 2.87,-4.1 -0.3,-1.7 -1.77,-2.93 -3.49,-2.93 -0.21,0 -0.41,0.02 -0.62,0.05 -0.93,0.16 -1.74,0.68 -2.29,1.46 -0.54,0.78 -0.75,1.72 -0.59,2.65 0.31,1.69 1.78,2.92 3.5,2.92 m 66.37,-65.33 -105,0.03 c -0.15,0 -0.3,0.02 -0.45,0.04 -1.4,0.25 -2.37,1.48 -2.34,2.86 l 0.2,64.52 54,-0.01 44.97,-16.03 0.04,-34.51 h 9.99 c 4.63,-0.82 7.71,-5.23 6.9,-9.85 -0.72,-4.11 -4.29,-7 -8.32,-7.02 z m -0.07,11.35 c -1.35,0 -2.55,-0.97 -2.79,-2.34 -0.27,-1.54 0.76,-3.01 2.3,-3.28 0.17,-0.03 0.33,-0.04 0.5,-0.04 1.35,0 2.55,0.97 2.79,2.34 0.27,1.54 -0.76,3.01 -2.3,3.28 -0.17,0.03 -0.33,0.04 -0.5,0.04 z M 9.39,101.44 c -1.35,0 -2.55,-0.97 -2.79,-2.34 -0.27,-1.54 0.76,-3.01 2.3,-3.28 0.17,-0.03 0.33,-0.04 0.5,-0.04 1.35,0 2.55,0.97 2.79,2.34 0.27,1.54 -0.76,3.01 -2.3,3.28 -0.17,0.03 -0.34,0.04 -0.5,0.04 z m 32.38,0.05 c -1.35,0 -2.55,-0.97 -2.79,-2.34 -0.27,-1.54 0.76,-3.01 2.3,-3.28 0.17,-0.03 0.33,-0.04 0.5,-0.04 1.35,0 2.55,0.97 2.79,2.34 0.27,1.54 -0.76,3.01 -2.3,3.28 -0.17,0.02 -0.34,0.04 -0.5,0.04 z"
   id="path1" />&#10;	</g>&#10;	<g
   id="g2"
   style="display:inline">&#10;		<path
   d="m 53.8,14.4 c 3.91,0 7.09,3.18 7.09,7.09 0,3.91 -3.18,7.09 -7.09,7.09 -3.91,0 -7.09,-3.18 -7.09,-7.09 0,-3.91 3.18,-7.09 7.09,-7.09 m 0,10.91 c 2.11,0 3.83,-1.72 3.83,-3.83 0,-2.11 -1.72,-3.83 -3.83,-3.83 -2.11,0 -3.83,1.72 -3.83,3.83 0,2.11 1.72,3.83 3.83,3.83 m 0,-11.62 c -4.31,0 -7.8,3.49 -7.8,7.8 0,4.31 3.49,7.8 7.8,7.8 4.31,0 7.8,-3.49 7.8,-7.8 0,-4.31 -3.49,-7.8 -7.8,-7.8 z m 0,10.91 c -1.72,0 -3.12,-1.4 -3.12,-3.12 0,-1.72 1.4,-3.12 3.12,-3.12 1.72,0 3.12,1.4 3.12,3.12 0,1.73 -1.4,3.12 -3.12,3.12 z"
   id="path2" />&#10;	</g>&#10;	<g
   id="g3">&#10;		<path
   d="m 17.27,14.4 c 3.91,0 7.09,3.18 7.09,7.09 0,3.91 -3.18,7.09 -7.09,7.09 -3.91,0 -7.09,-3.18 -7.09,-7.09 0,-3.91 3.18,-7.09 7.09,-7.09 m 0,10.91 c 2.11,0 3.83,-1.72 3.83,-3.83 0,-2.11 -1.72,-3.83 -3.83,-3.83 -2.11,0 -3.83,1.72 -3.83,3.83 0,2.11 1.72,3.83 3.83,3.83 m 0,-11.62 c -4.31,0 -7.8,3.49 -7.8,7.8 0,4.31 3.49,7.8 7.8,7.8 4.31,0 7.8,-3.49 7.8,-7.8 -0.01,-4.31 -3.5,-7.8 -7.8,-7.8 z m 0,10.91 c -1.72,0 -3.12,-1.4 -3.12,-3.12 0,-1.72 1.4,-3.12 3.12,-3.12 1.72,0 3.12,1.4 3.12,3.12 0,1.73 -1.4,3.12 -3.12,3.12 z"
   id="path3" />&#10;	</g>&#10;	<g
   id="g4"
   style="display:inline">&#10;		<path
   d="m 88.36,14.4 c 3.91,0 7.09,3.18 7.09,7.09 0,3.91 -3.18,7.09 -7.09,7.09 -3.91,0 -7.09,-3.18 -7.09,-7.09 0,-3.91 3.18,-7.09 7.09,-7.09 m 0,10.91 c 2.11,0 3.83,-1.72 3.83,-3.83 0,-2.11 -1.72,-3.83 -3.83,-3.83 -2.11,0 -3.83,1.72 -3.83,3.83 0,2.11 1.72,3.83 3.83,3.83 m 0,-11.62 c -4.31,0 -7.8,3.49 -7.8,7.8 0,4.31 3.49,7.8 7.8,7.8 4.31,0 7.8,-3.49 7.8,-7.8 -0.01,-4.31 -3.5,-7.8 -7.8,-7.8 z m 0,10.91 c -1.72,0 -3.12,-1.4 -3.12,-3.12 0,-1.72 1.4,-3.12 3.12,-3.12 1.72,0 3.12,1.4 3.12,3.12 0,1.73 -1.4,3.12 -3.12,3.12 z"
   id="path4" />&#10;	</g>&#10;	<g
   id="g5"
   style="display:inline">&#10;		<path
   d="m 107.42,37.58 v 0.03 h 0.71 c 3.76,0.02 6.97,2.73 7.63,6.43 0.36,2.05 -0.1,4.12 -1.29,5.82 -1.18,1.69 -2.95,2.82 -4.97,3.2 h -9.93 -0.71 v 0.71 L 98.83,87.78 54.44,103.6 1.26,103.61 1.06,39.78 C 1.03,38.72 1.77,37.82 2.81,37.64 2.93,37.62 3.04,37.61 3.14,37.61 l 104.28,-0.03 m 0.65,11.35 c 0.21,0 0.41,-0.02 0.62,-0.05 1.92,-0.34 3.21,-2.18 2.87,-4.11 -0.3,-1.7 -1.77,-2.93 -3.49,-2.93 -0.21,0 -0.41,0.02 -0.62,0.05 -1.92,0.34 -3.21,2.18 -2.87,4.11 0.31,1.69 1.77,2.93 3.49,2.93 M 9.4,102.16 c 0.21,0 0.41,-0.02 0.62,-0.05 0.93,-0.16 1.74,-0.68 2.29,-1.46 C 12.86,99.87 13.06,98.93 12.9,98 12.6,96.3 11.13,95.07 9.41,95.07 9.2,95.07 9,95.09 8.79,95.12 7.86,95.28 7.05,95.8 6.5,96.58 5.95,97.36 5.75,98.3 5.91,99.23 c 0.3,1.7 1.77,2.93 3.49,2.93 m 32.37,0.04 c 0.21,0 0.41,-0.02 0.62,-0.05 0.93,-0.16 1.74,-0.68 2.29,-1.46 0.54,-0.78 0.75,-1.72 0.59,-2.65 -0.3,-1.7 -1.77,-2.93 -3.49,-2.93 -0.21,0 -0.41,0.02 -0.62,0.05 -1.92,0.34 -3.21,2.18 -2.87,4.11 0.3,1.7 1.76,2.93 3.48,2.93 M 108.13,36.87 3.14,36.9 c -0.15,0 -0.3,0.02 -0.45,0.04 -1.4,0.25 -2.37,1.48 -2.34,2.86 l 0.21,64.52 54,-0.01 44.97,-16.04 0.03,-34.51 h 9.99 c 4.63,-0.82 7.71,-5.23 6.9,-9.85 -0.73,-4.11 -4.29,-7 -8.32,-7.02 z m -0.06,11.35 c -1.35,0 -2.55,-0.97 -2.79,-2.34 -0.27,-1.54 0.76,-3.01 2.3,-3.28 0.17,-0.03 0.33,-0.04 0.5,-0.04 1.35,0 2.55,0.97 2.79,2.34 0.27,1.54 -0.76,3.01 -2.3,3.28 -0.17,0.02 -0.33,0.04 -0.5,0.04 z M 9.4,101.45 c -1.35,0 -2.55,-0.97 -2.79,-2.34 -0.27,-1.54 0.76,-3.01 2.3,-3.28 0.17,-0.03 0.33,-0.04 0.5,-0.04 1.35,0 2.55,0.97 2.79,2.34 0.27,1.54 -0.76,3.01 -2.3,3.28 -0.17,0.02 -0.34,0.04 -0.5,0.04 z m 32.37,0.04 c -1.35,0 -2.55,-0.97 -2.79,-2.34 -0.27,-1.54 0.76,-3.01 2.3,-3.28 0.17,-0.03 0.33,-0.04 0.5,-0.04 1.35,0 2.55,0.97 2.79,2.34 0.27,1.54 -0.76,3.01 -2.3,3.28 -0.17,0.03 -0.33,0.04 -0.5,0.04 z"
   id="path5" />&#10;	</g>&#10;</g>&#10;<g
   id="mark1_1_"
   style="display:inline;fill:#0000ff;fill-opacity:1">&#10;	<g
   id="g13"
   style="display:inline;fill:none;fill-opacity:1;stroke:#d0d000;stroke-width:0.4;stroke-dasharray:none;stroke-dashoffset:0;stroke-opacity:1;paint-order:markers fill stroke">&#10;		<g
   id="g12"
   style="display:inline;fill:none;fill-opacity:1;stroke:#d0d000;stroke-width:0.4;stroke-dasharray:none;stroke-dashoffset:0;stroke-opacity:1;paint-order:markers fill stroke">&#10;			<path
   class="st0"
   d="m 16.13,53.31 h 4.84 c 1.72,0 2.87,0.29 3.44,0.87 0.57,0.58 0.85,1.85 0.85,3.83 v 3.02 c 0,1.3 -0.13,2.21 -0.4,2.74 -0.27,0.53 -0.73,0.94 -1.4,1.25 0.65,0.25 1.11,0.64 1.38,1.16 0.27,0.52 0.41,1.32 0.41,2.4 v 7.85 h -3.93 v -8.56 c 0,-0.38 -0.07,-0.65 -0.22,-0.81 -0.14,-0.16 -0.38,-0.24 -0.72,-0.24 -0.04,0 -0.09,0 -0.16,0.01 -0.07,0.01 -0.12,0.01 -0.16,0.01 v 9.59 H 16.11 V 53.31 Z m 3.95,3.01 v 7.06 c 0.05,0 0.11,0 0.19,0.01 0.08,0.01 0.13,0.01 0.16,0.01 0.35,0 0.59,-0.08 0.72,-0.24 0.13,-0.16 0.19,-0.48 0.19,-0.95 v -4.43 c 0,-0.69 -0.06,-1.11 -0.19,-1.25 -0.13,-0.14 -0.39,-0.21 -0.79,-0.21 z"
   id="path6"
   style="fill:none;fill-opacity:1;stroke:#d0d000;stroke-width:0.4;stroke-dasharray:none;stroke-dashoffset:0;stroke-opacity:1;paint-order:markers fill stroke" />&#10;			<path
   class="st0"
   d="m 27.07,53.31 h 6.31 v 3.02 h -2.36 v 5.89 h 2.36 v 3.04 h -2.36 v 8.11 h 2.36 v 3.04 h -6.31 z"
   id="path7"
   style="fill:none;fill-opacity:1;stroke:#d0d000;stroke-width:0.4;stroke-dasharray:none;stroke-dashoffset:0;stroke-opacity:1;paint-order:markers fill stroke" />&#10;			<path
   class="st0"
   d="m 34.8,53.31 h 3.82 l 0.85,15.65 h 0.15 l 0.96,-15.65 h 3.72 l -2.47,23.11 h -4.54 z"
   id="path8"
   style="fill:none;fill-opacity:1;stroke:#d0d000;stroke-width:0.4;stroke-dasharray:none;stroke-dashoffset:0;stroke-opacity:1;paint-order:markers fill stroke" />&#10;			<path
   class="st0"
   d="m 45.77,53.31 h 3.95 v 23.11 h -3.95 z"
   id="path9"
   style="fill:none;fill-opacity:1;stroke:#d0d000;stroke-width:0.4;stroke-dasharray:none;stroke-dashoffset:0;stroke-opacity:1;paint-order:markers fill stroke" />&#10;			<path
   class="st0"
   d="m 51.51,53.31 h 3.95 v 19.2 c 0,0.36 0.05,0.62 0.15,0.77 0.1,0.15 0.26,0.23 0.48,0.23 0.22,0 0.38,-0.07 0.47,-0.22 0.09,-0.14 0.13,-0.41 0.13,-0.78 v -19.2 h 3.96 v 18.67 c 0,2.01 -0.27,3.28 -0.81,3.81 -0.54,0.53 -1.78,0.79 -3.72,0.79 -1.98,0 -3.24,-0.27 -3.79,-0.8 -0.54,-0.53 -0.81,-1.8 -0.81,-3.8 V 53.31 Z"
   id="path10"
   style="fill:none;fill-opacity:1;stroke:#d0d000;stroke-width:0.4;stroke-dasharray:none;stroke-dashoffset:0;stroke-opacity:1;paint-order:markers fill stroke" />&#10;			<path
   class="st0"
   d="m 62.43,53.31 h 3.53 l 2.15,11.52 h 0.18 L 68.22,53.31 h 3.42 v 23.11 h -3.5 L 65.96,64.58 h -0.18 l 0.08,11.84 h -3.43 z"
   id="path11"
   style="fill:none;fill-opacity:1;stroke:#d0d000;stroke-width:0.4;stroke-dasharray:none;stroke-dashoffset:0;stroke-opacity:1;paint-order:markers fill stroke" />&#10;			<path
   class="st0"
   d="m 73.44,57.81 c 0,-2.05 0.28,-3.33 0.85,-3.86 0.56,-0.52 1.83,-0.78 3.79,-0.78 1.93,0 3.17,0.27 3.72,0.81 0.56,0.54 0.83,1.82 0.83,3.83 v 3.4 h -3.96 v -3.97 c 0,-0.4 -0.05,-0.66 -0.15,-0.8 -0.1,-0.13 -0.27,-0.2 -0.51,-0.2 -0.23,0 -0.4,0.07 -0.5,0.21 -0.1,0.14 -0.15,0.4 -0.15,0.79 v 15.27 c 0,0.36 0.05,0.61 0.16,0.76 0.11,0.14 0.28,0.22 0.52,0.22 0.23,0 0.39,-0.07 0.49,-0.2 0.09,-0.13 0.14,-0.39 0.14,-0.77 v -5.03 h -0.6 v -3.04 h 4.56 V 76.43 H 80.98 L 80.33,75.1 c -0.42,0.56 -0.88,0.94 -1.38,1.17 -0.5,0.22 -1.17,0.33 -2.01,0.33 -1.25,0 -2.15,-0.3 -2.69,-0.9 -0.54,-0.6 -0.81,-1.63 -0.81,-3.07 z"
   id="path12"
   style="fill:none;fill-opacity:1;stroke:#d0d000;stroke-width:0.4;stroke-dasharray:none;stroke-dashoffset:0;stroke-opacity:1;paint-order:markers fill stroke" />&#10;		</g>&#10;		<path
   class="st0"
   d="M 91.9,46.32 H 6.86 V 83.43 H 91.9 Z M 10.82,79.48 c 1.92,-4.48 2.99,-9.42 2.99,-14.61 0,-5.19 -1.07,-10.12 -2.99,-14.61 h 77.13 c -1.92,4.48 -2.99,9.42 -2.99,14.61 0,5.19 1.07,10.12 2.99,14.61 z"
   id="path13"
   style="display:inline;fill:none;fill-opacity:1;stroke:#d0d000;stroke-width:0.4;stroke-dasharray:none;stroke-dashoffset:0;stroke-opacity:1;paint-order:markers fill stroke" />&#10;	</g>&#10;	&#10;</g>&#10;&#10;&#10;</svg>
