<?xml version="1.0" encoding="UTF-8" standalone="no"?>
<!-- Generator: Adobe Illustrator 25.2.3, SVG Export Plug-In . SVG Version: 6.00 Build 0)  -->

<svg
   version="1.1"
   x="0px"
   y="0px"
   viewBox="0 0 718.84 304.22"
   style="enable-background:new 0 0 718.84 304.22;"
   xml:space="preserve"
   id="svg20"
   sodipodi:docname="reviung41-bottom-plate-ver1.1.svg"
   inkscape:version="1.3 (0e150ed6c4, 2023-07-21)"
   xmlns:inkscape="http://www.inkscape.org/namespaces/inkscape"
   xmlns:sodipodi="http://sodipodi.sourceforge.net/DTD/sodipodi-0.dtd"
   xmlns="http://www.w3.org/2000/svg"
   xmlns:svg="http://www.w3.org/2000/svg"><defs
   id="defs20" /><sodipodi:namedview
   id="namedview20"
   pagecolor="#ffffff"
   bordercolor="#000000"
   borderopacity="0.25"
   inkscape:showpageshadow="2"
   inkscape:pageopacity="0.0"
   inkscape:pagecheckerboard="0"
   inkscape:deskcolor="#d1d1d1"
   inkscape:zoom="1.9517555"
   inkscape:cx="369.15484"
   inkscape:cy="169.84709"
   inkscape:window-width="1920"
   inkscape:window-height="1009"
   inkscape:window-x="-8"
   inkscape:window-y="-8"
   inkscape:window-maximized="1"
   inkscape:current-layer="svg20" />&#10;<style
   type="text/css"
   id="style1">&#10;	.st0{fill:none;stroke:#231815;stroke-width:0.25;stroke-miterlimit:10;}&#10;	.st1{fill:#E73A18;}&#10;	.st2{fill:#231815;}&#10;	.st3{font-family:'ArialMT';}&#10;	.st4{font-size:14px;}&#10;</style>&#10;<g
   id="cut">&#10;	<path
   class="st0"
   d="M7.38,198.48l53.26,9.38c0.72,0.13,1.45,0.11,2.16-0.04l23.86-5.06c0.72-0.15,1.45-0.16,2.17-0.04l63.3,11.3   c1.35,0.24,2.34,1.42,2.34,2.79v43.26c0,1.57,1.27,2.83,2.83,2.83h49.38c1.17,0,2.22,0.72,2.64,1.81l7.11,18.35   c0.33,0.84,1.04,1.48,1.91,1.71l71.26,19.08h139.43l71.39-19.08c0.87-0.23,1.58-0.87,1.91-1.71l7.12-18.35   c0.42-1.09,1.47-1.81,2.64-1.81h49.33c1.57,0,2.83-1.27,2.83-2.83v-43.23c0-1.37,0.98-2.55,2.34-2.79l63.23-11.32   c0.72-0.13,1.45-0.12,2.17,0.03l23.98,5.06c0.71,0.15,1.44,0.16,2.15,0.04l53.31-9.38c4.63-0.81,7.72-5.23,6.9-9.86L690.55,31.39   c-0.72-4.06-4.25-7.02-8.37-7.02l-173.22,0l-50.9,9.02c-0.94,0.17-1.73,0.79-2.11,1.66l-2.35,5.41c-0.38,0.87-1.17,1.49-2.1,1.66   l-38.84,6.92c-1.54,0.27-3.02-0.75-3.29-2.3L401.6,2.7c-0.27-1.54-1.74-2.57-3.28-2.3L286.54,19.95l2.88,16.34   c0.41,2.31-1.14,4.52-3.45,4.93l-19.54,3.45c-2.31,0.41-4.52-1.14-4.93-3.45l-2.97-16.84H36.59c-4.13,0-7.66,2.96-8.37,7.03   L0.48,188.63C-0.33,193.26,2.76,197.67,7.38,198.48z M652.79,185.07c0-1.72,1.4-3.12,3.12-3.12s3.12,1.4,3.12,3.12   c0,1.72-1.4,3.12-3.12,3.12S652.79,186.79,652.79,185.07z M633.35,78.3c0-1.72,1.4-3.12,3.12-3.12c1.72,0,3.12,1.4,3.12,3.12   c0,1.72-1.4,3.12-3.12,3.12C634.75,81.42,633.35,80.02,633.35,78.3z M532.97,130.78c0-1.72,1.4-3.12,3.12-3.12   c1.72,0,3.12,1.4,3.12,3.12c0,1.72-1.4,3.12-3.12,3.12C534.36,133.9,532.97,132.5,532.97,130.78z M486.37,217.03   c0-1.72,1.4-3.12,3.12-3.12c1.72,0,3.12,1.4,3.12,3.12c0,1.72-1.4,3.12-3.12,3.12C487.76,220.15,486.37,218.76,486.37,217.03z    M418.96,106.39c0-1.72,1.4-3.12,3.12-3.12s3.12,1.4,3.12,3.12s-1.4,3.12-3.12,3.12S418.96,108.11,418.96,106.39z M356.31,225.49   c0-1.72,1.4-3.12,3.12-3.12s3.12,1.4,3.12,3.12c0,1.72-1.4,3.12-3.12,3.12S356.31,227.22,356.31,225.49z M293.61,106.39   c0-1.72,1.4-3.12,3.12-3.12c1.72,0,3.12,1.4,3.12,3.12c0,1.72-1.4,3.12-3.12,3.12C295.01,109.51,293.61,108.11,293.61,106.39z    M226.21,217.03c0-1.72,1.4-3.12,3.12-3.12c1.72,0,3.12,1.4,3.12,3.12c0,1.72-1.4,3.12-3.12,3.12   C227.61,220.15,226.21,218.75,226.21,217.03z M179.64,130.77c0-1.72,1.4-3.12,3.12-3.12c1.72,0,3.12,1.4,3.12,3.12   s-1.4,3.12-3.12,3.12C181.03,133.89,179.64,132.5,179.64,130.77z M79.25,78.3c0-1.72,1.4-3.12,3.12-3.12c1.72,0,3.12,1.4,3.12,3.12   c0,1.72-1.4,3.12-3.12,3.12C80.64,81.41,79.25,80.02,79.25,78.3z M59.8,185.07c0-1.72,1.4-3.12,3.12-3.12   c1.72,0,3.12,1.4,3.12,3.12c0,1.72-1.4,3.12-3.12,3.12C61.2,188.19,59.8,186.79,59.8,185.07z"
   id="path1" />&#10;</g>&#10;<g
   id="graving2"
   style="fill:none;stroke:#d0d000;stroke-opacity:1;stroke-width:0.6;stroke-dasharray:none">&#10;	&#10;	<g
   id="g19"
   style="fill:none;stroke:#d0d000;stroke-opacity:1;stroke-width:0.6;stroke-dasharray:none">&#10;		<path
   class="st1"
   d="M630.89,41.11v2.46c0.32,0,0.55-0.04,0.68-0.13c0.13-0.09,0.19-0.38,0.19-0.87v-0.61    c0-0.35-0.06-0.58-0.19-0.69C631.45,41.17,631.22,41.11,630.89,41.11z"
   id="path18"
   style="fill:none;stroke:#d0d000;stroke-opacity:1;stroke-width:0.6;stroke-dasharray:none" />&#10;		<path
   class="st1"
   d="M710.44,188.58l-6.66-38.41l0.08-0.01L686.8,53.43c-0.01-0.04-0.01-0.07-0.01-0.11l-0.18-1.02l-2.44-13.82    l-0.07,0.01l-1.06-5.82c-0.23-1.28-1.38-2.21-2.72-2.21l-162.59,0c-0.32,0-0.64,0.03-0.95,0.08l-50.33,8.94    c-1.85,0.33-3.42,1.55-4.18,3.27l-1.79,3.83c-0.39,0.84-1.17,1.43-2.08,1.59l-18.53,3.2c-3.62,0.62-5.71,4.47-4.25,7.84    l20.77,36.21c0.9,2.07,2.94,3.42,5.2,3.42h23.76c2.03,0,3.9-1.08,4.91-2.83l19.03-33.04c1.01-1.75,2.88-2.83,4.91-2.83h27.28    c2.03,0,3.9,1.08,4.91,2.83l19.37,33.04c1.01,1.75,2.88,2.83,4.91,2.83h23.54c1.64,0,3.19-0.71,4.27-1.94l20.14-34.95    c1.08-1.23,2.63-1.94,4.27-1.94h53.14c2.75,0,5.11,1.98,5.58,4.68l8.53,48.37c0.61,3.48-2.07,6.66-5.6,6.65l-49.43-0.13    c-1.88,0-3.64,0.94-4.7,2.5l-30.8,53.07c-1.06,1.57-2.82,2.5-4.71,2.5l-58.25,0c-2.23-0.01-4.25,1.29-5.17,3.32l-36.06,62.52    c-0.92,2.02-2.94,3.32-5.16,3.32h-39.39c-2.21,0-4.22-1.29-5.15-3.29l-3.79-8.2c-0.93-2.01-2.94-3.29-5.15-3.29h-69.92    c-1.82,2.03-4.45,3.32-7.39,3.32s-5.57-1.29-7.39-3.32h-69.83c-2.21,0-4.22,1.29-5.15,3.29l-3.79,8.2    c-0.93,2.01-2.94,3.29-5.15,3.29h-39.7c-2.21,0-4.22-1.28-5.14-3.29L187.1,180.9c-0.93-2-2.94-3.29-5.15-3.29l-58.14,0.04    c-1.89,0-3.65-0.94-4.71-2.5l-30.7-53.06c-1.05-1.57-2.82-2.5-4.7-2.5H34.07c-3.52,0-6.2-3.18-5.58-6.65l8.5-48.23    c0.48-2.71,2.83-4.68,5.58-4.68h53.16c1.64,0,3.19,0.71,4.27,1.94l19.95,34.97c1.08,1.23,2.63,1.94,4.27,1.94h23.9    c2.03,0,3.9-1.08,4.91-2.83l18.92-33.05c1.01-1.75,2.88-2.83,4.91-2.83h28.3c2.03,0,3.9,1.08,4.91,2.83l18.92,33.04    c1.01,1.75,2.88,2.83,4.91,2.83h22.94c2.29,0,4.36-1.38,5.24-3.5l20.15-35.03c1.3-3.14-0.44-6.72-3.72-7.63l-6.79-3.02l-8.43,1.49    c-3.08,0.54-6.02-1.52-6.57-4.6l-0.68-3.85l-27.09-12.03c-0.49-0.14-1.01-0.21-1.52-0.21l-189.34,0c-1.34,0-2.49,0.93-2.72,2.21    l-1.74,10.27l-14.28,81.01c-0.02,0.09-0.06,0.17-0.07,0.27l-3.11,17.78l-1.37,7.76l0.01,0l-6.77,38.74    c-0.27,1.45,0.74,2.84,2.24,3.1l19.02,3.3c2.34,0.4,4.68-0.7,5.86-2.75l11.3-19.49c1.01-1.75,2.88-2.83,4.91-2.83h20.81    c2.03,0,3.9,1.08,4.91,2.83l9.16,20.17c0.84,1.46,2.28,2.46,3.94,2.75l69.12,12.13c1.32,0.23,2.28,1.34,2.28,2.63l0,42.75    c0,1.48,1.24,2.67,2.77,2.67l47.25,0c1.14,0,2.16,0.67,2.58,1.7l7.51,19.7c0.32,0.79,1.01,1.39,1.86,1.61l66.69,17.93l137.88,0    l67.2-17.99c0.85-0.22,1.54-0.82,1.86-1.61l7.44-19.65c0.41-1.02,1.44-1.7,2.58-1.7l47.24,0c1.53,0,2.77-1.2,2.77-2.67l0-42.9    c0-1.3,0.96-2.41,2.28-2.63l68.51-11.91c1.67-0.28,3.12-1.29,3.97-2.76l9.39-20.24c1.01-1.75,2.88-2.83,4.91-2.83h20.81    c2.03,0,3.9,1.08,4.91,2.83l9.76,19.63c1.19,2.05,3.52,3.15,5.86,2.75l20.6-3.38C709.7,191.42,710.7,190.03,710.44,188.58z     M554.29,52.98c-3.91,0-7.09-3.17-7.09-7.09s3.17-7.09,7.09-7.09s7.09,3.17,7.09,7.09S558.21,52.98,554.29,52.98z M568.48,67.17    c-3.91,0-7.09-3.17-7.09-7.09s3.17-7.09,7.09-7.09s7.09,3.17,7.09,7.09S572.39,67.17,568.48,67.17z M582.65,52.98    c-3.91,0-7.09-3.17-7.09-7.09s3.17-7.09,7.09-7.09s7.09,3.17,7.09,7.09S586.57,52.98,582.65,52.98z M596.83,67.17    c-3.91,0-7.09-3.17-7.09-7.09s3.17-7.09,7.09-7.09s7.09,3.17,7.09,7.09S600.75,67.17,596.83,67.17z M611.01,52.98    c-3.91,0-7.09-3.17-7.09-7.09s3.17-7.09,7.09-7.09s7.09,3.17,7.09,7.09S614.92,52.98,611.01,52.98z M634,45.08    c0.2,0.24,0.32,0.46,0.37,0.65c0.05,0.2,0.07,0.74,0.07,1.64v2.92h-2.67v-3.68c0-0.59-0.05-0.96-0.14-1.1    c-0.09-0.14-0.34-0.21-0.74-0.21v4.99h-2.88V39.22h2.04c1.36,0,2.28,0.05,2.76,0.16c0.48,0.1,0.87,0.37,1.18,0.8    c0.3,0.43,0.46,1.12,0.46,2.06c0,0.86-0.11,1.44-0.32,1.74s-0.64,0.47-1.26,0.53C633.42,44.65,633.8,44.84,634,45.08z     M640.54,50.29h-4.99V39.22h4.8v2.21h-1.92v2.1h1.8v2.11h-1.8v2.43h2.11V50.29z M646.75,50.29h-4.37l-1.66-11.07h3.04    c0.35,3.05,0.6,5.63,0.76,7.74c0.15-2.13,0.31-4.03,0.47-5.68l0.2-2.06h3.04L646.75,50.29z M651.58,50.29h-2.88V39.22h2.88V50.29z     M659.27,46.62c0,0.84-0.03,1.43-0.08,1.77c-0.05,0.34-0.22,0.69-0.49,1.05c-0.27,0.36-0.62,0.63-1.06,0.81    c-0.44,0.19-0.96,0.28-1.56,0.28c-0.66,0-1.24-0.11-1.75-0.33s-0.88-0.5-1.13-0.85s-0.4-0.72-0.44-1.11    c-0.05-0.39-0.07-1.21-0.07-2.46v-6.55h2.88v8.3c0,0.48,0.03,0.79,0.08,0.93c0.05,0.13,0.16,0.2,0.32,0.2    c0.18,0,0.3-0.07,0.35-0.22c0.05-0.15,0.08-0.5,0.08-1.05v-8.16h2.88V46.62z M666.81,50.29h-2.52l-1.5-5.03v5.03h-2.41V39.22h2.41    l1.61,4.98v-4.98h2.41V50.29z M674.57,43.29h-2.88v-1c0-0.63-0.03-1.03-0.08-1.19s-0.18-0.24-0.39-0.24    c-0.18,0-0.3,0.07-0.36,0.21s-0.1,0.49-0.1,1.05v5.31c0,0.5,0.03,0.82,0.1,0.98c0.06,0.16,0.19,0.24,0.38,0.24    c0.21,0,0.35-0.09,0.43-0.27c0.08-0.18,0.11-0.52,0.11-1.04v-1.31h-0.58v-1.68h3.37v5.94h-1.81l-0.27-0.79    c-0.2,0.34-0.44,0.6-0.74,0.77c-0.3,0.17-0.65,0.26-1.06,0.26c-0.48,0-0.94-0.12-1.36-0.35c-0.42-0.24-0.74-0.53-0.96-0.87    c-0.22-0.35-0.36-0.71-0.41-1.09c-0.05-0.38-0.08-0.95-0.08-1.71v-3.29c0-1.06,0.06-1.83,0.17-2.3s0.44-0.92,0.98-1.32    c0.54-0.4,1.24-0.6,2.09-0.6c0.84,0,1.54,0.17,2.1,0.52s0.92,0.76,1.09,1.23c0.17,0.48,0.25,1.17,0.25,2.08V43.29z M164.67,38.81    c3.91,0,7.09,3.17,7.09,7.09s-3.17,7.09-7.09,7.09s-7.09-3.17-7.09-7.09S160.76,38.81,164.67,38.81z M150.5,53    c3.91,0,7.09,3.17,7.09,7.09s-3.17,7.09-7.09,7.09s-7.09-3.17-7.09-7.09S146.58,53,150.5,53z M136.31,38.81    c3.91,0,7.09,3.17,7.09,7.09s-3.17,7.09-7.09,7.09s-7.09-3.17-7.09-7.09S132.4,38.81,136.31,38.81z M122.14,53    c3.91,0,7.09,3.17,7.09,7.09s-3.17,7.09-7.09,7.09s-7.09-3.17-7.09-7.09S118.22,53,122.14,53z M107.96,38.81    c3.91,0,7.09,3.17,7.09,7.09s-3.17,7.09-7.09,7.09c-3.91,0-7.09-3.17-7.09-7.09S104.04,38.81,107.96,38.81z M33.68,167.16    c-0.68,3.85-4.36,6.43-8.21,5.75s-6.43-4.36-5.75-8.21s4.36-6.43,8.21-5.75C31.79,159.63,34.36,163.31,33.68,167.16z M30.4,144.98    c-3.85-0.68-6.43-4.36-5.75-8.21s4.36-6.43,8.21-5.75s6.43,4.36,5.75,8.21S34.25,145.66,30.4,144.98z M50.12,155.66    c-0.68,3.85-4.36,6.43-8.21,5.75s-6.43-4.36-5.75-8.21s4.36-6.43,8.21-5.75S50.8,151.81,50.12,155.66z M181.35,245.97    c-2.77,2.77-7.25,2.77-10.02,0c-2.77-2.77-2.77-7.25,0-10.02c2.77-2.77,7.25-2.77,10.02,0    C184.12,238.72,184.12,243.2,181.35,245.97z M181.36,225.91c-2.77,2.77-7.25,2.77-10.02,0c-2.77-2.77-2.77-7.25,0-10.02    c2.77-2.77,7.25-2.77,10.02,0C184.13,218.66,184.13,223.14,181.36,225.91z M201.41,245.96c-2.77,2.77-7.25,2.77-10.02,0    c-2.77-2.77-2.77-7.25,0-10.02s7.25-2.77,10.02,0C204.18,238.71,204.18,243.2,201.41,245.96z M475.67,269.86h-70.39l-4.07,15.04    c-0.67,2.47-2.91,4.19-5.47,4.19h-72.44c-2.55,0-4.79-1.7-5.46-4.16l-4.16-15.07h-70.43c-2.35,0-4.25-1.9-4.25-4.25    c0-2.35,1.9-4.25,4.25-4.25h69.11l6.48-16.77c0.84-2.18,2.95-3.62,5.29-3.62h70.35c2.31,0,4.39,1.4,5.26,3.55l6.81,16.85h69.14    c2.35,0,4.25,1.9,4.25,4.25C479.93,267.95,478.02,269.86,475.67,269.86z M527.45,245.96c-2.77,2.77-7.25,2.77-10.02,0    c-2.77-2.77-2.77-7.25,0-10.02c2.77-2.77,7.25-2.77,10.02,0C530.21,238.71,530.21,243.2,527.45,245.96z M537.48,215.89    c2.77-2.77,7.25-2.77,10.02,0c2.77,2.77,2.77,7.25,0,10.02c-2.77,2.77-7.25,2.77-10.02,0    C534.71,223.14,534.71,218.66,537.48,215.89z M547.51,245.97c-2.77,2.77-7.25,2.77-10.02,0c-2.77-2.77-2.77-7.25,0-10.02    c2.77-2.77,7.25-2.77,10.02,0C550.28,238.72,550.28,243.2,547.51,245.97z M686.14,131.02c3.85-0.68,7.53,1.89,8.21,5.75    s-1.89,7.53-5.75,8.21s-7.53-1.89-8.21-5.75S682.28,131.7,686.14,131.02z M677.09,161.41c-3.85,0.68-7.53-1.89-8.21-5.75    s1.89-7.53,5.75-8.21s7.53,1.89,8.21,5.75S680.94,160.73,677.09,161.41z M693.52,172.91c-3.85,0.68-7.53-1.89-8.21-5.75    s1.89-7.53,5.75-8.21c3.85-0.68,7.53,1.89,8.21,5.75S697.38,172.23,693.52,172.91z"
   id="path19"
   style="fill:none;stroke:#d0d000;stroke-opacity:1;stroke-width:0.6;stroke-dasharray:none" />&#10;	</g>&#10;</g>&#10;<g
   id="note">&#10;	<text
   transform="matrix(1 0 0 1 3.001 278.8347)"
   id="text20"><tspan
     x="0"
     y="0"
     class="st2 st3 st4"
     id="tspan19">W : 253.34 mm</tspan><tspan
     x="0"
     y="18"
     class="st2 st3 st4"
     id="tspan20">H : 107.073 mm</tspan></text>&#10;</g>&#10;</svg>
